<?xml version="1.0" encoding="utf-8"?>
<!-- Generated by IcoMoon.io -->
<!DOCTYPE svg PUBLIC "-//W3C//DTD SVG 1.1//EN" "http://www.w3.org/Graphics/SVG/1.1/DTD/svg11.dtd">
<svg version="1.1" xmlns="http://www.w3.org/2000/svg" xmlns:xlink="http://www.w3.org/1999/xlink" width="32" height="32" viewBox="0 0 32 32">
<path fill="#444" d="M16 32c-2.16 0-4.255-0.424-6.229-1.258-1.905-0.805-3.617-1.959-5.085-3.429s-2.623-3.18-3.429-5.085c-0.835-1.972-1.258-4.069-1.258-6.228s0.423-4.255 1.258-6.229c0.806-1.905 1.96-3.615 3.429-5.085s3.18-2.623 5.085-3.429c1.974-0.835 4.069-1.258 6.229-1.258s4.256 0.423 6.227 1.258c1.905 0.805 3.616 1.96 5.085 3.429 1.47 1.47 2.622 3.18 3.429 5.085 0.834 1.973 1.258 4.069 1.258 6.229s-0.424 4.256-1.258 6.228c-0.806 1.906-1.959 3.616-3.429 5.085-1.469 1.47-3.18 2.622-5.085 3.429-1.971 0.835-4.069 1.258-6.227 1.258zM16 1.28c-8.117 0-14.72 6.604-14.72 14.72s6.604 14.721 14.72 14.721c8.116 0 14.72-6.604 14.72-14.721s-6.604-14.72-14.72-14.72z"></path>
<path fill="#444" d="M23.895 15.123h-7.018v-7.016c0-0.484-0.392-0.877-0.877-0.878-0.485 0.002-0.877 0.394-0.877 0.878v7.017h-7.018c-0.484 0-0.877 0.393-0.877 0.876 0 0.486 0.393 0.877 0.877 0.877h7.018v7.017c0 0.485 0.392 0.878 0.877 0.878s0.877-0.394 0.877-0.878v-7.017h7.018c0.485 0 0.878-0.392 0.877-0.877 0-0.483-0.393-0.876-0.877-0.876z"></path>
</svg>
