<?xml version="1.0" encoding="utf-8"?>
<!-- Generated by IcoMoon.io -->
<!DOCTYPE svg PUBLIC "-//W3C//DTD SVG 1.1//EN" "http://www.w3.org/Graphics/SVG/1.1/DTD/svg11.dtd">
<svg version="1.1" xmlns="http://www.w3.org/2000/svg" xmlns:xlink="http://www.w3.org/1999/xlink" width="32" height="32" viewBox="0 0 32 32">
<path fill="#444" d="M21.664 9.306l-5.664 5.664-5.665-5.664-1.030 1.029 5.664 5.665-5.664 5.663 1.030 1.032 5.665-5.665 5.664 5.665 1.031-1.032-5.664-5.663 5.664-5.665-1.031-1.029zM16 0c-4.537 0.122-8.306 1.686-11.31 4.69s-4.568 6.773-4.69 11.31c0.122 4.538 1.686 8.306 4.69 11.31s6.772 4.567 11.31 4.69c4.537-0.122 8.306-1.686 11.31-4.69s4.567-6.773 4.689-11.31c-0.122-4.537-1.686-8.306-4.689-11.31s-6.773-4.568-11.31-4.69zM16 30.529c-4.12-0.099-7.546-1.515-10.28-4.249s-4.151-6.162-4.248-10.28c0.098-4.12 1.514-7.546 4.248-10.28s6.161-4.15 10.28-4.248c4.119 0.098 7.547 1.514 10.279 4.248 2.735 2.734 4.151 6.161 4.25 10.28-0.099 4.119-1.515 7.547-4.25 10.28-2.733 2.733-6.16 4.15-10.28 4.249z"></path>
</svg>
