<?xml version="1.0" encoding="utf-8"?>
<!-- Generated by IcoMoon.io -->
<!DOCTYPE svg PUBLIC "-//W3C//DTD SVG 1.1//EN" "http://www.w3.org/Graphics/SVG/1.1/DTD/svg11.dtd">
<svg version="1.1" xmlns="http://www.w3.org/2000/svg" xmlns:xlink="http://www.w3.org/1999/xlink" width="32" height="32" viewBox="0 0 32 32">
<path fill="#444" d="M29.785 5.037l-18.613 15.384c-0.328 0.234-0.691 0.363-1.087 0.384-0.395 0.024-0.733-0.081-1.011-0.312l-6.721-5.083c-0.279-0.232-0.594-0.325-0.944-0.278s-0.64 0.208-0.875 0.488l-0.21 0.277c-0.234 0.326-0.339 0.686-0.315 1.079 0.024 0.395 0.175 0.729 0.455 1.011l8.748 8.912c0.232 0.277 0.536 0.415 0.91 0.415 0.373 0 0.7-0.114 0.979-0.346l20.504-20.12c0.235-0.232 0.363-0.521 0.387-0.871 0.021-0.348-0.094-0.649-0.352-0.904-0.256-0.257-0.556-0.385-0.907-0.385-0.352-0-0.669 0.116-0.948 0.348z"></path>
</svg>
