<?xml version="1.0" encoding="utf-8"?>
<!-- Generated by IcoMoon.io -->
<!DOCTYPE svg PUBLIC "-//W3C//DTD SVG 1.1//EN" "http://www.w3.org/Graphics/SVG/1.1/DTD/svg11.dtd">
<svg version="1.1" xmlns="http://www.w3.org/2000/svg" xmlns:xlink="http://www.w3.org/1999/xlink" width="32" height="32" viewBox="0 0 32 32">
<path fill="#444" d="M16 0.001c-4.523 0.106-8.293 1.669-11.312 4.688s-4.582 6.79-4.688 11.312c0.106 4.522 1.669 8.292 4.688 11.313 3.019 3.017 6.79 4.58 11.312 4.688 4.523-0.108 8.293-1.671 11.313-4.688 3.017-3.020 4.581-6.79 4.688-11.313-0.107-4.523-1.67-8.293-4.688-11.312-3.020-3.018-6.79-4.581-11.313-4.688zM22.688 21.407c0.214 0.214 0.314 0.465 0.304 0.753-0.011 0.287-0.122 0.532-0.335 0.736-0.213 0.201-0.465 0.303-0.752 0.303-0.288 0-0.539-0.107-0.752-0.32l-5.184-5.375-5.376 5.183c-0.213 0.214-0.464 0.314-0.752 0.305-0.289-0.011-0.533-0.123-0.736-0.335-0.202-0.213-0.304-0.465-0.304-0.752 0-0.288 0.107-0.539 0.321-0.752l5.376-5.184-5.184-5.377c-0.214-0.213-0.315-0.463-0.305-0.752 0.011-0.287 0.123-0.533 0.336-0.736s0.465-0.305 0.752-0.305c0.288 0 0.539 0.107 0.752 0.32l5.185 5.375 5.376-5.184c0.213-0.213 0.464-0.315 0.752-0.304 0.287 0.011 0.532 0.123 0.736 0.337 0.202 0.213 0.304 0.463 0.304 0.752 0 0.287-0.107 0.539-0.32 0.751l-5.376 5.184 5.184 5.376z"></path>
</svg>
