<?xml version="1.0" encoding="utf-8"?>
<!-- Generated by IcoMoon.io -->
<!DOCTYPE svg PUBLIC "-//W3C//DTD SVG 1.1//EN" "http://www.w3.org/Graphics/SVG/1.1/DTD/svg11.dtd">
<svg version="1.1" xmlns="http://www.w3.org/2000/svg" xmlns:xlink="http://www.w3.org/1999/xlink" width="32" height="32" viewBox="0 0 32 32">
<path fill="#444" d="M15.784-0.006c-4.416 0.12-8.122 1.694-11.117 4.726s-4.553 6.863-4.673 11.494c0.12 4.416 1.677 8.123 4.673 11.118s6.702 4.553 11.117 4.673c4.632-0.12 8.463-1.678 11.495-4.674s4.606-6.702 4.727-11.118c-0.12-4.631-1.696-8.462-4.727-11.494-3.032-3.032-6.863-4.606-11.495-4.726zM21.441 18.901l-4.224 5.513c-0.358 0.43-0.764 0.645-1.217 0.645s-0.86-0.215-1.217-0.645l-4.226-5.513c-0.335-0.43-0.43-0.801-0.287-1.111s0.501-0.465 1.074-0.465h3.331v-9.99c0-0.191 0.066-0.352 0.197-0.484s0.28-0.197 0.447-0.197h1.36c0.192 0 0.348 0.065 0.465 0.197 0.121 0.132 0.18 0.293 0.18 0.484v9.99h3.331c0.573 0 0.93 0.155 1.074 0.465 0.142 0.311 0.047 0.681-0.288 1.111z"></path>
</svg>
