<?xml version="1.0" encoding="utf-8"?>
<!-- Generated by IcoMoon.io -->
<!DOCTYPE svg PUBLIC "-//W3C//DTD SVG 1.1//EN" "http://www.w3.org/Graphics/SVG/1.1/DTD/svg11.dtd">
<svg version="1.1" xmlns="http://www.w3.org/2000/svg" xmlns:xlink="http://www.w3.org/1999/xlink" width="32" height="32" viewBox="0 0 32 32">
<path fill="#444" d="M8.313 29.677c-0.368 0-0.705-0.067-1.013-0.2s-0.573-0.378-0.798-0.736c-0.225-0.358-0.338-0.802-0.338-1.334v-9.448h-1.963c-0.184 0-0.373-0.051-0.567-0.154s-0.362-0.256-0.506-0.46c-0.348-0.43-0.522-0.93-0.522-1.504v-0.245l12.608-13.068c0.082-0.082 0.174-0.138 0.276-0.169s0.215-0.046 0.338-0.046c0.307 0 0.531 0.072 0.675 0.215 0.041 0.041 4.274 4.356 12.7 12.946l0.184 0.184v0.552l-0.061 0.306c0 0.102-0.010 0.195-0.031 0.277s-0.047 0.158-0.076 0.23c-0.031 0.071-0.067 0.137-0.108 0.199-0.286 0.45-0.706 0.675-1.258 0.675h-1.902l-0.030 9.602v0.061c-0.082 0.346-0.236 0.686-0.461 1.012-0.491 0.736-1.145 1.105-1.963 1.105h-4.662v-0.614c0-0.716 0.005-1.518 0.015-2.408s0.015-1.845 0.015-2.868v-2.576c0-0.695-0.011-1.073-0.031-1.136 0-0.082-0.032-0.19-0.093-0.323-0.061-0.134-0.133-0.199-0.215-0.199h-5.030c-0.041 0-0.087 0.026-0.138 0.076s-0.097 0.113-0.138 0.184c-0.041 0.072-0.060 0.148-0.060 0.23v9.633h-4.846zM4.263 16.762h3.129v10.646c0 0.695 0.306 1.043 0.92 1.043h3.62v-8.405c0-0.451 0.154-0.849 0.46-1.198s0.675-0.521 1.104-0.521h5.031c0.512 0 0.921 0.235 1.227 0.706 0.204 0.328 0.307 0.665 0.307 1.013 0.020 0.224 0.020 3.026 0 8.406h3.436c0.245 0 0.465-0.082 0.66-0.245 0.195-0.164 0.323-0.317 0.383-0.461s0.113-0.285 0.154-0.43l0.031-10.614h3.13c0.102 0 0.163-0.031 0.184-0.093 0.061-0.102 0.102-0.256 0.122-0.459l-0.031-0.031v-0.031h-0.030v-0.031h-0.032l-0.030-0.031v-0.031h-0.031l-0.032-0.031v-0.031h-0.032l-0.031-0.031v-0.030l-0.030-0.031h-0.032l-0.032-0.031v-0.031l-0.061-0.062h-0.031l-0.030-0.031v-0.031l-0.061-0.062h-0.032l-0.032-0.031v-0.031l-0.184-0.184h-0.030v-0.031l-0.614-0.614v-0.031l-0.031-0.031h-0.027l-0.122-0.123v-0.031l-0.032-0.031h-0.031l-0.154-0.153v-0.031l-0.184-0.184h-0.032l-0.215-0.215v-0.031l-0.981-0.98-0.031-0.062-0.061-0.062-0.061-0.031-0.154-0.153-0.032-0.062-0.093-0.092-0.061-0.031-0.061-0.062-0.031-0.062-0.093-0.092-0.061-0.031-0.031-0.031-0.031-0.062-0.122-0.123-0.061-0.031-0.031-0.062-0.645-0.645-0.032-0.062-0.061-0.031-0.061-0.062-0.031-0.062-0.031-0.031-0.061-0.031-0.032-0.031-0.031-0.062-0.031-0.031-0.061-0.031-0.031-0.031-0.031-0.062-0.032-0.031-0.061-0.031-0.031-0.031-0.031-0.062-0.031-0.031-0.061-0.031-0.032-0.062-0.061-0.062-0.061-0.031-0.031-0.062-0.184-0.184-0.061-0.031-0.030-0.062-0.307-0.307-0.032-0.062-0.061-0.031-0.032-0.031-0.031-0.062-0.061-0.031-0.031-0.031-0.032-0.062-0.061-0.031-0.032-0.031-0.030-0.062-0.061-0.031-0.031-0.031-0.032-0.062-0.031-0.031-0.061-0.031-0.031-0.062-0.031-0.031-0.061-0.031-0.032-0.062-0.032-0.031-0.061-0.031-0.031-0.062-0.030-0.031-0.061-0.031-0.032-0.062-0.245-0.245-0.061-0.030-0.032-0.062-0.031-0.031-0.061-0.031-0.031-0.062-0.245-0.245-0.032-0.061-0.061-0.031-0.245-0.245-0.031-0.061-0.061-0.031-0.031-0.031-0.032-0.061-0.061-0.031-0.031-0.061-0.061-0.031-0.031-0.031-0.032-0.061-0.061-0.031-0.022-0.053-0.032-0.031-0.061-0.031-0.030-0.061-0.061-0.031-0.031-0.061-0.032-0.031-0.061-0.031-0.032-0.061-0.123-0.123-0.061-0.031-0.031-0.061-0.675-0.675-0.031-0.061-0.061-0.031-0.032-0.031-0.031-0.061-0.061-0.031-0.031-0.061-0.061-0.031-0.031-0.031-0.032-0.061-0.061-0.031-0.032-0.061-0.030-0.031-0.061-0.031-0.031-0.061-0.032-0.031-0.061-0.031-0.032-0.061-0.061-0.031-0.030-0.061-0.030-0.031-0.061-0.031-0.032-0.061-0.032-0.031-0.061-0.031-0.031-0.061-0.583-0.583-0.032-0.061-0.061-0.031-0.093-0.092-0.025-0.057-0.031-0.031-0.061-0.031-0.123-0.123-0.031-0.062-0.031-0.031-0.062-0.031-12.024 12.425c0.041 0.184 0.102 0.332 0.184 0.445s0.163 0.198 0.245 0.261l0.024 0.025z"></path>
</svg>
