<?xml version="1.0" encoding="utf-8"?>
<!-- Generated by IcoMoon.io -->
<!DOCTYPE svg PUBLIC "-//W3C//DTD SVG 1.1//EN" "http://www.w3.org/Graphics/SVG/1.1/DTD/svg11.dtd">
<svg version="1.1" xmlns="http://www.w3.org/2000/svg" xmlns:xlink="http://www.w3.org/1999/xlink" width="32" height="32" viewBox="0 0 32 32">
<path fill="#444" d="M16 32c-2.159 0-4.255-0.424-6.229-1.258-1.905-0.805-3.616-1.959-5.085-3.429s-2.623-3.18-3.428-5.085c-0.835-1.972-1.258-4.069-1.258-6.228s0.423-4.256 1.258-6.229c0.805-1.905 1.96-3.615 3.428-5.085s3.18-2.623 5.085-3.429c1.974-0.835 4.070-1.258 6.229-1.258s4.255 0.423 6.227 1.258c1.905 0.806 3.616 1.96 5.085 3.429s2.622 3.18 3.429 5.085c0.834 1.973 1.258 4.069 1.258 6.229s-0.424 4.256-1.258 6.228c-0.806 1.906-1.959 3.616-3.429 5.085-1.469 1.47-3.18 2.622-5.085 3.429-1.972 0.835-4.069 1.258-6.227 1.258zM16 1.28c-8.116 0-14.72 6.604-14.72 14.72s6.604 14.721 14.72 14.721 14.72-6.604 14.72-14.721-6.604-14.72-14.72-14.72z"></path>
<path fill="#444" d="M17.649 24.965h-5.095v-0.864h2.015v-11.094h-2.015v-0.938h4.932v12.030h1.959v0.864h-1.796z"></path>
<path fill="#444" d="M17.959 8.136c0 1.082-0.877 1.959-1.959 1.959s-1.959-0.877-1.959-1.959c0-1.082 0.877-1.958 1.959-1.958s1.959 0.877 1.959 1.958z"></path>
</svg>
