<?xml version="1.0" encoding="utf-8"?>
<!-- Generated by IcoMoon.io -->
<!DOCTYPE svg PUBLIC "-//W3C//DTD SVG 1.1//EN" "http://www.w3.org/Graphics/SVG/1.1/DTD/svg11.dtd">
<svg version="1.1" xmlns="http://www.w3.org/2000/svg" xmlns:xlink="http://www.w3.org/1999/xlink" width="32" height="32" viewBox="0 0 32 32">
<path fill="#444" d="M15.802-0.002c-8.639 0-15.803 7.163-15.803 16.198 0 8.639 7.164 15.802 15.803 15.802 9.035 0 16.199-7.163 16.199-15.802 0.001-9.035-7.163-16.198-16.198-16.198v0zM17.127 23.852c0 0.345-0.288 0.619-0.634 0.619h-0.986c-0.346 0-0.634-0.275-0.634-0.619v-10.254c0-0.177 0.152-0.327 0.329-0.327h1.598c0.177 0 0.328 0.152 0.328 0.327v10.254zM16 11.519c-0.883 0-1.601-0.716-1.601-1.6s0.717-1.6 1.601-1.6c0.884 0 1.601 0.716 1.601 1.6s-0.716 1.6-1.601 1.6v0z"></path>
</svg>
