<?xml version="1.0" encoding="utf-8"?>
<!-- Generated by IcoMoon.io -->
<!DOCTYPE svg PUBLIC "-//W3C//DTD SVG 1.1//EN" "http://www.w3.org/Graphics/SVG/1.1/DTD/svg11.dtd">
<svg version="1.1" xmlns="http://www.w3.org/2000/svg" xmlns:xlink="http://www.w3.org/1999/xlink" width="32" height="32" viewBox="0 0 32 32">
<path fill="#444" d="M16.016 28.012c-6.646 0-12.033-5.387-12.033-12.032 0-0.284 0.023-0.562 0.043-0.841l0.027-0.358h2.793l-4.237-4.238v4.238c-0.018 0.451 0 0.806 0 1.217 0 7.394 5.995 13.39 13.391 13.39 3.096 0 5.948-1.055 8.216-2.82l-1.29-0.744c-1.956 1.375-4.335 2.189-6.907 2.189l-0.001-0zM29.389 15.998c0-7.396-5.995-13.39-13.392-13.39-4.306 0-8.136 2.035-10.585 5.194l1.194 0.69c2.205-2.767 5.597-4.545 9.41-4.545 6.646 0 12.034 5.388 12.034 12.033 0 0.629-0.061 1.243-0.157 1.845h-2.705l4.2 4.2v-4.2c0.030-0.89 0-1.205 0-1.826l0 0.001z"></path>
</svg>
