<?xml version="1.0" encoding="utf-8"?>
<!-- Generated by IcoMoon.io -->
<!DOCTYPE svg PUBLIC "-//W3C//DTD SVG 1.1//EN" "http://www.w3.org/Graphics/SVG/1.1/DTD/svg11.dtd">
<svg version="1.1" xmlns="http://www.w3.org/2000/svg" xmlns:xlink="http://www.w3.org/1999/xlink" width="32" height="32" viewBox="0 0 32 32">
<path fill="#444" d="M16 0c-2.973 0.693-5.611 1.391-7.916 2.095-2.303 0.705-4.423 1.379-6.359 2.026v10.978c0.207 4.896 1.803 8.729 4.787 11.498s6.147 4.57 9.488 5.402c3.341-0.832 6.504-2.633 9.489-5.404 2.985-2.77 4.579-6.602 4.787-11.498v-10.977c-1.936-0.647-4.056-1.321-6.36-2.026-2.303-0.704-4.944-1.402-7.916-2.095zM24.677 11.117l-11.097 10.977c-0.091 0.046-0.172 0.035-0.242-0.034l-5.116-5.299c-0.069-0.092-0.081-0.174-0.034-0.241l0.726-0.97c0.069-0.094 0.139-0.104 0.207-0.034l4.218 3.219c0.069 0.046 0.15 0.046 0.242 0l10.197-8.519c0.091-0.069 0.172-0.069 0.241 0l0.657 0.659c0.067 0.091 0.067 0.172 0 0.242z"></path>
</svg>
