<?xml version="1.0" encoding="utf-8"?>
<!-- Generated by IcoMoon.io -->
<!DOCTYPE svg PUBLIC "-//W3C//DTD SVG 1.1//EN" "http://www.w3.org/Graphics/SVG/1.1/DTD/svg11.dtd">
<svg version="1.1" xmlns="http://www.w3.org/2000/svg" xmlns:xlink="http://www.w3.org/1999/xlink" width="32" height="32" viewBox="0 0 32 32">
<path fill="#444" d="M16.011 0.009c-2.947 0.697-5.577 1.399-7.89 2.108s-4.439 1.375-6.38 2v10.989c0.216 4.876 1.815 8.701 4.798 11.476 2.983 2.773 6.141 4.58 9.472 5.422 3.331-0.842 6.488-2.648 9.47-5.422 2.983-2.776 4.583-6.599 4.799-11.476v-10.989c-1.942-0.625-4.067-1.291-6.38-2s-4.942-1.411-7.89-2.107zM15.184 9.953h1.653c0.216 0.024 0.323 0.132 0.323 0.324l-0.358 7.783c-0.024 0.095-0.084 0.157-0.179 0.18h-1.223c-0.095-0.024-0.156-0.085-0.18-0.18l-0.36-7.782c-0.001-0.193 0.107-0.3 0.323-0.325zM16.011 22.058c-0.335 0-0.611-0.113-0.827-0.342s-0.323-0.511-0.323-0.846 0.108-0.613 0.323-0.829 0.492-0.324 0.827-0.324c0.335 0 0.611 0.11 0.825 0.324 0.217 0.216 0.325 0.492 0.325 0.829s-0.108 0.618-0.325 0.846c-0.214 0.23-0.49 0.342-0.825 0.342z"></path>
</svg>
