<?xml version="1.0" encoding="utf-8"?>
<!-- Generated by IcoMoon.io -->
<!DOCTYPE svg PUBLIC "-//W3C//DTD SVG 1.1//EN" "http://www.w3.org/Graphics/SVG/1.1/DTD/svg11.dtd">
<svg version="1.1" xmlns="http://www.w3.org/2000/svg" xmlns:xlink="http://www.w3.org/1999/xlink" width="32" height="32" viewBox="0 0 32 32">
<path fill="#444" d="M0 12.713c0-7.021 5.691-12.713 12.713-12.713s12.714 5.692 12.714 12.713-5.692 12.713-12.714 12.713c-7.021 0-12.713-5.692-12.713-12.713zM12.713 23.392c5.898 0 10.679-4.781 10.679-10.678s-4.781-10.679-10.679-10.679-10.679 4.781-10.679 10.679c0 5.898 4.781 10.678 10.679 10.678zM20.901 20.181c0.397-0.397 1.041-0.396 1.442 0.006l9.338 9.339c0.401 0.4 0.407 1.043 0.008 1.444l-0.721 0.72c-0.397 0.397-1.041 0.396-1.442-0.006l-10.065-10.063 1.439-1.439z"></path>
</svg>
