<?xml version="1.0" encoding="utf-8"?>
<!-- Generated by IcoMoon.io -->
<!DOCTYPE svg PUBLIC "-//W3C//DTD SVG 1.1//EN" "http://www.w3.org/Graphics/SVG/1.1/DTD/svg11.dtd">
<svg version="1.1" xmlns="http://www.w3.org/2000/svg" xmlns:xlink="http://www.w3.org/1999/xlink" width="32" height="32" viewBox="0 0 32 32">
<path fill="#444" d="M16 32c-2.16 0-4.255-0.424-6.229-1.258-1.905-0.805-3.617-1.959-5.085-3.429s-2.623-3.18-3.429-5.085c-0.835-1.972-1.258-4.069-1.258-6.228s0.423-4.255 1.258-6.229c0.806-1.905 1.96-3.615 3.429-5.085s3.18-2.623 5.085-3.429c1.974-0.835 4.069-1.258 6.229-1.258s4.256 0.423 6.227 1.258c1.905 0.806 3.616 1.96 5.085 3.429s2.622 3.18 3.429 5.085c0.834 1.973 1.258 4.069 1.258 6.229s-0.424 4.256-1.258 6.228c-0.806 1.906-1.959 3.616-3.429 5.085-1.469 1.47-3.18 2.622-5.085 3.429-1.971 0.835-4.069 1.258-6.227 1.258zM16 1.28c-8.117 0-14.72 6.604-14.72 14.72s6.604 14.721 14.72 14.721c8.116 0 14.72-6.604 14.72-14.721s-6.604-14.72-14.72-14.72z"></path>
<path fill="#444" d="M24.722 11.708l-10.64 10.443c-0.145 0.119-0.314 0.179-0.508 0.179s-0.352-0.071-0.472-0.215l-4.541-4.625c-0.146-0.148-0.223-0.32-0.236-0.524s0.042-0.39 0.164-0.561l0.108-0.142c0.121-0.145 0.272-0.23 0.454-0.253 0.181-0.024 0.345 0.023 0.489 0.145l3.488 2.637c0.145 0.119 0.32 0.175 0.525 0.161 0.206-0.011 0.394-0.078 0.563-0.199l9.661-7.982c0.145-0.12 0.308-0.181 0.491-0.181 0.182 0 0.338 0.066 0.471 0.199s0.194 0.288 0.183 0.47c-0.014 0.181-0.079 0.331-0.202 0.451z"></path>
</svg>
