<?xml version="1.0" encoding="utf-8"?>
<!-- Generated by IcoMoon.io -->
<!DOCTYPE svg PUBLIC "-//W3C//DTD SVG 1.1//EN" "http://www.w3.org/Graphics/SVG/1.1/DTD/svg11.dtd">
<svg version="1.1" xmlns="http://www.w3.org/2000/svg" xmlns:xlink="http://www.w3.org/1999/xlink" width="32" height="32" viewBox="0 0 32 32">
<path fill="#444" d="M15.803 0c-8.64 0-15.805 7.163-15.805 16.198 0 8.639 7.165 15.802 15.805 15.802 9.035 0 16.199-7.163 16.199-15.802 0.001-9.034-7.163-16.198-16.199-16.198zM24.723 11.708l-10.64 10.443c-0.145 0.119-0.314 0.179-0.508 0.179s-0.352-0.071-0.472-0.215l-4.541-4.625c-0.146-0.147-0.223-0.319-0.236-0.524-0.012-0.204 0.042-0.39 0.164-0.561l0.108-0.143c0.121-0.145 0.272-0.229 0.454-0.253s0.345 0.024 0.489 0.145l3.488 2.637c0.145 0.119 0.32 0.174 0.525 0.161 0.206-0.011 0.394-0.078 0.563-0.199l9.66-7.983c0.145-0.12 0.308-0.181 0.491-0.181 0.182 0 0.338 0.066 0.471 0.199s0.194 0.288 0.183 0.47c-0.014 0.181-0.079 0.331-0.202 0.451z"></path>
</svg>
