<?xml version="1.0" encoding="utf-8"?>
<!-- Generated by IcoMoon.io -->
<!DOCTYPE svg PUBLIC "-//W3C//DTD SVG 1.1//EN" "http://www.w3.org/Graphics/SVG/1.1/DTD/svg11.dtd">
<svg version="1.1" xmlns="http://www.w3.org/2000/svg" xmlns:xlink="http://www.w3.org/1999/xlink" width="32" height="32" viewBox="0 0 32 32">
<path fill="#444" d="M28.198 28.7c0.025 0.084-0.033 0.024-0.011 0.11l0.011-0.11c0 0.427-0.354 0.773-0.79 0.773-0.549 0-0.827-0.773-0.827-0.773-1.796-4.010-5.059-6.893-10.584-6.893s-8.861 2.717-10.613 7.067l0.021-0.172c0 0.512-0.521 0.771-0.824 0.771-0.437 0-0.789-0.345-0.789-0.771v0c0.022-0.085 0.026-0.166 0.050-0.251 0.009-0.020 0.010-0.044 0.021-0.066 1.657-3.742 3.607-5.949 7.957-7.45-3.364-1.54-5.7-4.875-5.7-8.752 0-5.336 4.421-9.665 9.874-9.665 5.452 0 9.876 4.329 9.876 9.665 0 3.877-2.34 7.209-5.703 8.75 3.724 1.020 6.261 3.529 7.96 7.451 0.008 0.020 0.064 0.296 0.071 0.315zM24.438 12.184c0-4.564-3.78-8.264-8.443-8.264s-8.444 3.7-8.444 8.264c0 4.565 3.78 8.266 8.444 8.266 4.662-0.002 8.443-3.7 8.443-8.265z"></path>
</svg>
