<?xml version="1.0" encoding="utf-8"?>
<!-- Generated by IcoMoon.io -->
<!DOCTYPE svg PUBLIC "-//W3C//DTD SVG 1.1//EN" "http://www.w3.org/Graphics/SVG/1.1/DTD/svg11.dtd">
<svg version="1.1" xmlns="http://www.w3.org/2000/svg" xmlns:xlink="http://www.w3.org/1999/xlink" width="32" height="32" viewBox="0 0 32 32">
<path fill="#444" d="M15.837 0c-8.64 0-15.805 7.163-15.805 16.198 0 8.639 7.165 15.802 15.805 15.802 9.034 0 16.199-7.163 16.199-15.802 0.001-9.034-7.163-16.198-16.199-16.198zM16.034 24.467c-0.856 0-1.55-0.694-1.55-1.551 0-0.856 0.694-1.549 1.55-1.549s1.55 0.693 1.55 1.549c0 0.858-0.694 1.551-1.55 1.551zM17.128 19.081c-0.020 0.417-0.284 0.434-0.558 0.434h-1.040c-0.274 0-0.542-0.005-0.562-0.422 0 0-0.494-10.245-0.494-10.265 0-0.444 0.228-0.649 0.515-0.649h2.080c0.287 0 0.524 0.204 0.524 0.649 0 0.021-0.465 10.253-0.465 10.253z"></path>
</svg>
